<mxfile host="app.diagrams.net" modified="2023-03-29T11:37:56.658Z" agent="Mozilla/5.0 (Macintosh; Intel Mac OS X 10_15_7) AppleWebKit/605.1.15 (KHTML, like Gecko) Version/16.3 Safari/605.1.15" etag="WQ2GK5dSeZ2epECQO4Yx" version="21.1.1" type="github">
  <diagram name="Page-1" id="8yAGuziluQzxK5X6-esK">
    <mxGraphModel dx="954" dy="623" grid="1" gridSize="10" guides="1" tooltips="1" connect="1" arrows="1" fold="1" page="1" pageScale="1" pageWidth="827" pageHeight="1169" math="0" shadow="0">
      <root>
        <mxCell id="0" />
        <mxCell id="1" parent="0" />
        <mxCell id="zO_fUQz5YsDBSEipKwVT-1" value="User" style="shape=umlActor;verticalLabelPosition=bottom;verticalAlign=top;html=1;outlineConnect=0;" vertex="1" parent="1">
          <mxGeometry x="60" y="300" width="30" height="60" as="geometry" />
        </mxCell>
        <mxCell id="zO_fUQz5YsDBSEipKwVT-2" value="" style="rounded=0;whiteSpace=wrap;html=1;" vertex="1" parent="1">
          <mxGeometry x="309" y="250" width="250" height="200" as="geometry" />
        </mxCell>
        <mxCell id="zO_fUQz5YsDBSEipKwVT-3" value="Pool Contract" style="text;html=1;strokeColor=none;fillColor=none;align=center;verticalAlign=middle;whiteSpace=wrap;rounded=0;" vertex="1" parent="1">
          <mxGeometry x="404" y="460" width="60" height="30" as="geometry" />
        </mxCell>
        <mxCell id="zO_fUQz5YsDBSEipKwVT-4" value="Bot" style="shape=umlActor;verticalLabelPosition=bottom;verticalAlign=top;html=1;outlineConnect=0;" vertex="1" parent="1">
          <mxGeometry x="790" y="301" width="30" height="60" as="geometry" />
        </mxCell>
        <mxCell id="zO_fUQz5YsDBSEipKwVT-5" value="Uniswap" style="ellipse;shape=cloud;whiteSpace=wrap;html=1;" vertex="1" parent="1">
          <mxGeometry x="374" y="20" width="120" height="80" as="geometry" />
        </mxCell>
        <mxCell id="zO_fUQz5YsDBSEipKwVT-9" value="" style="endArrow=classic;html=1;rounded=0;" edge="1" parent="1">
          <mxGeometry width="50" height="50" relative="1" as="geometry">
            <mxPoint x="770" y="340" as="sourcePoint" />
            <mxPoint x="580" y="330" as="targetPoint" />
          </mxGeometry>
        </mxCell>
        <mxCell id="zO_fUQz5YsDBSEipKwVT-10" value="1. Sends Buy Signal" style="edgeLabel;html=1;align=center;verticalAlign=middle;resizable=0;points=[];" vertex="1" connectable="0" parent="zO_fUQz5YsDBSEipKwVT-9">
          <mxGeometry x="0.0646" y="-3" relative="1" as="geometry">
            <mxPoint y="-12" as="offset" />
          </mxGeometry>
        </mxCell>
        <mxCell id="zO_fUQz5YsDBSEipKwVT-11" value="" style="endArrow=classic;startArrow=classic;html=1;rounded=0;" edge="1" parent="1">
          <mxGeometry width="50" height="50" relative="1" as="geometry">
            <mxPoint x="440" y="230" as="sourcePoint" />
            <mxPoint x="440" y="110" as="targetPoint" />
          </mxGeometry>
        </mxCell>
        <mxCell id="zO_fUQz5YsDBSEipKwVT-12" value="2. Trades USDT for Asset" style="edgeLabel;html=1;align=center;verticalAlign=middle;resizable=0;points=[];" vertex="1" connectable="0" parent="zO_fUQz5YsDBSEipKwVT-11">
          <mxGeometry x="0.1167" y="-1" relative="1" as="geometry">
            <mxPoint x="79" as="offset" />
          </mxGeometry>
        </mxCell>
      </root>
    </mxGraphModel>
  </diagram>
</mxfile>
